<?xml version="1.0" standalone="no"?><!DOCTYPE svg PUBLIC "-//W3C//DTD SVG 1.1//EN" "http://www.w3.org/Graphics/SVG/1.1/DTD/svg11.dtd"><svg class="icon" width="200px" height="200.00px" viewBox="0 0 1024 1024" version="1.1" xmlns="http://www.w3.org/2000/svg"><path d="M255.884 215.708c7.772-17.836 30.048-42.192 43.424-47.492 3.808 2.216-4.16 8.912 2.112 8.452 7.2-0.524 12.168-6.356 14.992-13.504-4.868-2.84-7.792 2.176-13.896 2.112 11.972-9.596 24.284-15.172 35.772-21.9a26547.308 26547.308 0 0 1 152.932-88.696 231.008 231.008 0 0 1 25.404-12.588c27.372-11.56 53.928-5.544 78.088 7.916 60.488 33.704 120.08 69.02 180.072 103.612 13.392 7.724 26.4 15.964 38.308 25.856-0.292 1.616 0.932 2.204 1.892 3.156 15.176 14.968 25.708 32.24 26.572 54.232-3.916-0.924-7.984-1.456-11.728-2.844-18.472-6.848-35.9-3.744-52.588 5.452-12.968 7.144-25.752 14.62-38.508 22.148-56.628 33.408-115.02 63.836-169.932 100.128-18.852 12.464-40.832 10.064-55.508-6.4-7.7-8.64-11.964-20.02-23.324-25.932-18.232-9.492-35.672-20.496-53.488-30.78-43.228-24.964-86.208-50.372-129.908-74.476-11.112-6.132-19.5-20.036-36.444-14.292-4.944 1.668-8.276 7.256-14.244 5.84z m319.096 93.948c-0.296-2.016-0.932-3.968-3.572-3.332-6.088 1.48-10.876 5.048-13.648 10.648-1.204 2.42 1.076 3.728 3.26 3.364 6.344-1.04 10.54-5.104 13.96-10.68z" fill="#FEEB2D" /><path d="M65.012 488.756c11.1-13.668 27.848-19.06 42.128-27.812 34.924-21.404 70.876-41.132 106.444-61.492 2.312-1.324 4.84-2.256 7.28-3.384 0.708 11.408-1.912 22.548-2.808 33.832-3.54-12.32-9.04-16.6-16.812-12.084a5728.628 5728.628 0 0 0-87.968 52.136c-9.072 5.496-8.492 18.216 0.644 23.76a8638.12 8638.12 0 0 0 70.36 42.272c14.76 8.772 29.692 17.252 44.54 25.872 4.564 2.648 9.156 2.932 10.12-3.176 3.556-22.556 10.892-44.748-0.4-67.872-7.224-14.792-14.724-29.992-17.12-46.78 12.676 9.808 26.156 18.356 40.068 26.332a29438.528 29438.528 0 0 1 154.38 89.056c26.052 15.14 51.712 31.104 83.912 26.888 13.948 2.14 26.212-4.272 37.4-10.204 31.248-16.568 61.492-35.008 92.168-52.652 68.364-39.324 136.752-78.592 205.104-117.932 18.968-10.916 24.068-22.148 21.336-42.996-1.344-10.308-3.708-20.648-2.376-31.204 3.78-3.652 1.86-8.16 1.744-12.332-0.26-9.356-3.288-18.516-2.028-27.992 33.564 19.228 67.424 37.952 100.464 58.032 7.992 4.856 17.48 11.056 17.644 23.068 0.456 11.34-9.128 12.444-16.272 16.532-50.276 28.828-100.424 57.896-150.584 86.928-68.608 39.724-137.156 79.564-205.816 119.196-55.808 32.216-111.764 64.176-167.62 96.312-13.148 7.56-23.912 6.48-34.78-4.296-6.024-5.98-12.38-11.512-19.688-15.76-34.996-20.348-70.1-40.508-105.124-60.804-58.952-34.156-117.976-68.188-176.696-102.732-10.04-5.904-21.84-9.224-29.644-18.712z" fill="#FEEB2D" /><path d="M65.012 488.756c7.804 9.484 19.604 12.808 29.64 18.708 58.72 34.544 117.748 68.576 176.696 102.732 35.024 20.296 70.132 40.456 105.124 60.804 7.308 4.248 13.664 9.78 19.688 15.76 10.872 10.776 21.632 11.856 34.78 4.296 55.856-32.136 111.812-64.096 167.62-96.312 68.66-39.632 137.208-79.472 205.816-119.196 50.16-29.032 100.308-58.104 150.584-86.928 7.144-4.088 16.732-5.192 16.272-16.532 11.256 7.3 14.856 17.676 12.24 30.548-5.688-6.912-7.884-0.672-9.524 3.096-1.248 2.868-0.56 6.576-0.732 9.908l0.136 67.436c-0.004 3.384 0.184 6.78-0.048 10.152-0.508 7.576-5.784 11.936-11.352 15.9-5.868 4.184-8.376-2.324-11.904-4.444-23.748-14.272-47.98-17.336-74.408-7.184-36.036 13.852-61.3 39.816-82.416 70.54-9.484 13.788-19.28 27.724-23.416 44.468l-5.6 11.596c-44.404 25.496-88.92 50.788-133.12 76.62-10.776 6.3-20.516 12.86-31.056 0.236-1.004-1.208-2.872-1.728-4.38-2.484-33.952-17.064-64.708-6.948-93.012 12.908-37.444 26.268-62.788 62.448-79.804 104.648l-2.296 5.6-6.584 1.536c-2.264-6.028 1.272-11.916 0.396-17.948-2.7-18.6-0.184-37.392-1.936-56.04-0.312-3.292-0.112-6.88 0.88-10 3.164-9.92-1.064-19.38-1.856-28.956-0.5-5.98-9.676-3.1-13.4-7.22-0.444-0.496-1.068-0.824-1.584-1.26-24.752-20.764-54.132-34.052-81.736-50.144-71.572-41.724-143.592-82.672-215.252-124.248-14.34-8.32-31.152-13.924-38.832-30.8-0.104-3.476 2.236-5.576 4.376-7.796z" fill="#C3881A" /><path d="M853.416 331.316c-1.332 10.556 1.032 20.896 2.376 31.204 2.732 20.848-2.368 32.076-21.336 42.996-68.352 39.34-136.744 78.608-205.104 117.932-30.676 17.644-60.92 36.084-92.168 52.652-11.188 5.928-23.448 12.344-37.4 10.204-0.32-6.584-2.324-12.728-0.82-19.86 2.828-13.396 3.404-27.264 4.928-40.94 2.236-20 3.404-40.204 7.056-59.944 3.252-17.588-0.296-31.84-13.288-43.884 0.692-9.876 4.444-18.988 7.072-28.384 4.548-16.248 1.464-22.4-13.86-28.388a86.36 86.36 0 0 1-11.828-5.724c-58.224-33.652-116.248-67.652-174.724-100.852-12.752-7.24-24.808-20.64-42.32-11.028-0.88-3.968 2.416-10.24-2.64-11.544-5.904-1.528-9.308 3.828-11.36 9.12-1.204 3.116-2.396 6.232-3.544 9.364-1.632 4.456-0.668 10.052-5.744 12.984 2.4-18.272 8.004-35.476 17.16-51.504 5.976 1.408 9.304-4.18 14.248-5.856 16.944-5.744 25.332 8.16 36.444 14.292 43.7 24.1 86.68 49.512 129.908 74.476 17.816 10.288 35.256 21.288 53.488 30.78 11.36 5.916 15.624 17.296 23.324 25.932 14.676 16.464 36.656 18.86 55.508 6.4 54.916-36.292 113.304-66.72 169.932-100.128 12.752-7.524 25.54-15 38.508-22.148 16.692-9.192 34.116-12.3 52.588-5.452 3.744 1.388 7.808 1.92 11.728 2.848 3.144 9.312 2.756 19.124 3.98 28.696 2.828 21.892 5.284 43.836 7.888 65.756z m-22.132 10.012c-1.676-21.528-3.576-47.452-5.74-73.356-2.084-24.904-17.592-33.144-39.088-20.752-61.176 35.26-122.284 70.644-183.452 105.92-18.512 10.672-29.992 27.432-33.456 47.416-5.348 30.852-7.668 62.248-10.804 93.456-1.032 10.252-3.256 21.812 7.636 28.596 11.116 6.924 20.724-0.024 30.076-5.412 65.956-37.976 131.744-76.244 197.88-113.904 22.74-12.952 38.312-29.6 36.948-61.964z" fill="#C3881A" /><path d="M422.848 816.032c17.012-42.2 42.36-78.38 79.804-104.648 28.304-19.856 59.06-29.968 93.012-12.908 1.508 0.756 3.376 1.276 4.38 2.484 10.54 12.624 20.276 6.068 31.056-0.236 44.2-25.832 88.72-51.124 133.12-76.616 5.152 16.08 11.584 31.764 7.244 49.464-1.576 6.416-4.336 12.408-5.568 18.864-5.204-3.576-9.504-0.264-13.644 2.116-34.472 19.884-68.772 40.072-103.372 59.736-7.308 4.148-11.228 7.752-9.92 17.504 2.332 17.432-4.452 26.86-19.404 31.684-0.6-6.328-1.696-12.576-2.128-18.96-0.764-11.228-6.004-21.004-15.296-27.396-10.072-6.928-17.42-3-27.644 4.152-15.796 11.052-33.724 19.384-49.916 30.412-5.072 3.452-11.656 4.744-15.472 10.3-14.096 20.528-24.952 42.252-25.704 67.876-0.16 5.468-2.076 10.416-6.132 14.516-3.296 3.336-6.8 6.132-11.52 4.256-4.464-1.776-4.548-6.248-4.536-10.368 0.044-11.196-3.5-21.22-10.332-29.956-5.84-7.476-10.22-15.732-14.36-24.184-2.76-5.632-6.964-9.028-13.668-8.092z m107.024-90.376c-12.164 1.444-19.068 7.184-20.676 17.08 8.564-3.788 15.784-8.412 20.676-17.08z" fill="#585858" /><path d="M60.648 496.552c7.68 16.872 24.492 22.48 38.832 30.8 71.66 41.576 143.684 82.524 215.252 124.248 27.604 16.092 56.984 29.38 81.736 50.144 0.516 0.436 1.14 0.764 1.584 1.26 3.724 4.116 12.9 1.24 13.4 7.22 0.792 9.58 5.02 19.036 1.856 28.956-0.996 3.12-1.192 6.708-0.88 10 1.752 18.648-0.764 37.436 1.936 56.04 0.876 6.036-2.66 11.92-0.388 17.94-13.632 5.484-26.968 2.94-38.932-3.836-52.708-29.844-105.416-59.72-157.468-90.692-44.84-26.684-90.348-52.192-135.208-78.82-10.04-5.96-23.268-9.184-26.1-23.472l-0.008-8.756 0.52-109.62c-0.064-4.26 0.58-8.288 3.868-11.412z m315.336 273.904c1.82-5.82 3.168-11.576 2.008-17.856-3.86-20.872-14.244-37.772-31.136-50.332-9.476-7.048-20.136-9.384-31.208-2.792-10.804 9.164-12.212 20.684-9.212 33.8 5.576 24.344 17.396 43.712 41.872 52.632 12.284 4.48 24.292-2.784 27.676-15.452z m-236.092-139.932c1.956-29.156-13.248-57.52-36.76-68.764-8.06-3.864-15.968-5.036-23.832 0.368-12.548 8.064-13.048 19.912-10.58 32.876 4.332 22.74 15.56 40.852 36.192 51.848 15.544 8.276 30.916 0.62 34.98-16.328z m152.672 80.308c0-6.764-0.436-13.572 0.092-20.296 1.032-13.156-5.516-22.4-15.832-28.5-35.136-20.788-70.588-41.044-106.052-61.264-10.564-6.024-22.352-0.556-24.816 11.5-3.416 16.7-1.768 33.616-1.032 50.456 0.604 13.812 9.268 21.732 20.568 27.792 8.324 4.464 16.46 9.284 24.668 13.976 25.788 14.748 51.372 29.868 77.44 44.092 13.044 7.12 24.64-0.536 24.944-15.416 0.144-7.44 0.02-14.896 0.02-22.34z" fill="#815A12" /><path d="M769.82 612.508c4.136-16.748 13.932-30.68 23.416-44.468 21.112-30.728 46.38-56.688 82.416-70.54 26.424-10.156 50.66-7.088 74.408 7.184 3.528 2.12 6.036 8.628 11.904 4.444 5.568-3.964 10.844-8.324 11.352-15.9 0.232-3.372 0.044-6.768 0.048-10.152 8.704 5.076 17.404 10.152 26.092 15.236 7.076 4.14 10.22 10.352 9.932 18.504-0.176 4.728-0.36 9.492 0.032 14.196 0.864 10.376-3.396 18.836-12.552 22.184-12.672 4.632-12.428 13.296-11.74 23.956 0.976 15.144-6.064 24.208-19.852 27.776-3.136-5.312-1.948-11.18-2.104-16.856-0.432-15.88-10.764-29.168-25.072-32.8-3.536-0.904-6.288-1.072-7.168 2.756-1.336 5.848-5.452 5.996-10.076 5.984-3.7-0.004-8.14-0.912-10.972 0.756-17.832 10.532-37.356 18.556-51.04 35.332-17.332 21.248-28.212 44.98-29.728 72.54-0.416 7.496-4.484 12.348-9.536 16.944-5.452 4.972-8.636 4.704-8.976-3.552-0.768-18.676-6.068-35.6-19.304-49.472-1.348-1.408-2.112-3.46-2.844-5.344-3.48-8.976-8.42-16.456-18.636-18.708z m107.18-85.408c-12.096 0.736-20.756 7.756-22.184 18.184 8.68-4.824 16.56-9.584 22.184-18.184z" fill="#585858" /><path d="M497.66 421.672c12.992 12.04 16.54 26.296 13.288 43.884-3.652 19.74-4.82 39.944-7.056 59.944-1.528 13.676-2.104 27.548-4.928 40.94-1.504 7.132 0.5 13.272 0.82 19.86-32.2 4.22-57.86-11.748-83.912-26.888a29559.016 29559.016 0 0 0-154.38-89.056c-13.912-7.976-27.392-16.52-40.068-26.332l0.056 0.068c0.704-2.156-0.608-3.204-2.244-4.072-1.796-3.212-1.316-6.684-1.18-10.12 0.896-11.28 3.516-22.42 2.808-33.832l12.98-92.22c2.8-5.848 2.372-12.108 2.348-18.32l0.204-4.128c1.872-3.164 4.832-6.128 1.888-10.184l0.436-3.996c5.076-2.936 4.112-8.532 5.744-12.988 1.148-3.132 2.336-6.248 3.544-9.364 2.052-5.292 5.456-10.648 11.36-9.12 5.056 1.308 1.756 7.576 2.64 11.544-1.96 3.508-5.04 6.832-5.68 10.572-2.56 14.912-4.532 29.932-6.404 44.952-4.36 35.044-8.344 70.136-12.896 105.156-1.564 12 2.356 21.872 13.072 28.044 69.056 39.776 138.128 79.52 207.228 119.224 11.432 6.572 19.904 3.128 22.064-10.188 3.98-24.552 6.448-49.356 10.356-73.928 2.624-16.48 2.024-33.496 7.912-49.452z" fill="#815A12" /><path d="M422.848 816.032c6.704-0.932 10.908 2.46 13.668 8.092 4.14 8.452 8.52 16.708 14.36 24.184 6.832 8.74 10.376 18.76 10.332 29.956-0.012 4.116 0.072 8.588 4.536 10.368 4.72 1.876 8.224-0.92 11.52-4.256 4.06-4.096 5.972-9.048 6.132-14.516 0.752-25.62 11.604-47.348 25.704-67.876 3.816-5.56 10.404-6.848 15.472-10.3 16.192-11.028 34.116-19.36 49.916-30.412 10.224-7.152 17.576-11.084 27.644-4.152 9.292 6.392 14.532 16.168 15.296 27.396 0.432 6.388 1.528 12.632 2.128 18.96-7.96 1.588-10.844 4.9-12.452 14.444-7.324 43.544-28.004 78.652-71.4 95.428-23.928 9.248-45.704 2.856-64.52-13.7-4.488-3.956-8.052-5.468-14.208-3.932-14.168 3.54-28.036 2.296-40.408-6.608 7.064-4.908 10.596-10.964 12.68-20.036 4.072-17.7-3.268-32.14-8.692-47.44l2.292-5.6z m151.508 26.2c6-15.76 9.276-29.504 1.06-43.536-5.196-8.876-12.084-11.44-21.296-6.688-21.384 11.04-33.684 29.432-40.728 51.844-2.956 9.408-6.036 19.34-1.868 28.612 3.716 8.268 11.984 11.42 21.184 11.164 0.58-0.012 1.18 0.596 1.768 0.924 11.748 6.516 17.304 5.516 26.828-5.076 3.116-3.468 7.056-7.06 4.448-12.376-2.388-4.856-5.512-7.476-12.12-5.408-5.568 1.748-14.888-7.176-15.26-12.988-0.528-8.092 0.076-14.888 11.416-10.764 2.316 0.844 3.988-2.096 5.88-3.456 9.904-7.136 14.38-5.608 18.688 7.748z" fill="#45361A" /><path d="M420.556 821.632c5.424 15.3 12.764 29.744 8.692 47.44-2.084 9.072-5.616 15.128-12.68 20.036-2.772 1.316-5.548 2.64-8.32 3.952 0.028-7.78 0.1-15.564 0.064-23.352-0.008-2.612 0.576-6.164-3.032-6.592-16.172-1.932-28.368-12.12-41.724-19.8-42.372-24.38-84.584-49.024-126.92-73.464-41.2-23.78-82.936-46.68-123.576-71.38-31.276-19.008-66.132-32.568-92.608-59.116 1.172-3.332 3.548-6.02 6.48-7.36 2.464-1.136 6.488-5.052 8.056 1.928 0.564 2.512 3.708 4.64 6.02 6.52 4.136 3.36 7.612 3.732 9.764-2.444 1.408-4.04 3.64-7.788 5.5-11.664 2.832 14.292 16.06 17.516 26.096 23.476 44.856 26.628 90.364 52.136 135.208 78.82 52.052 30.972 104.76 60.848 157.468 90.692 11.964 6.776 25.3 9.32 38.932 3.836 2.188-0.5 4.384-1.016 6.58-1.528z" fill="#585858" /><path d="M769.82 612.508c10.216 2.252 15.156 9.732 18.64 18.716 0.732 1.884 1.496 3.936 2.844 5.344 13.24 13.872 18.536 30.796 19.304 49.472 0.34 8.252 3.524 8.524 8.976 3.552 5.052-4.596 9.116-9.448 9.536-16.944 1.516-27.56 12.396-51.288 29.728-72.54 13.684-16.776 33.208-24.8 51.04-35.332 2.832-1.668 7.272-0.76 10.972-0.756 4.62 0.012 8.74-0.136 10.076-5.984 0.88-3.828 3.632-3.66 7.168-2.756 14.304 3.632 24.636 16.92 25.072 32.8 0.156 5.676-1.032 11.544 2.104 16.856-13.46 1.42-15.596 10.308-18.452 22.192-9.756 40.556-31.084 73.176-72.664 87.416-22.528 7.72-43.352 1.804-60.932-13.972-3.868-3.468-6.788-3.632-11.388-2.72-12.516 2.504-24.784 1.8-35.948-5.412 1.236-6.456 3.996-12.444 5.572-18.864 4.344-17.7-2.088-33.388-7.244-49.464 1.86-3.872 3.728-7.74 5.596-11.604z m136.424 44.948l2.028-2.04c0.788-0.72 2.62-1.148 0.74-2.624l-0.72 2.648-2.036 2.024-2.044 2.028c-1.976 0.332-4.12 0.288-5.912 1.064-6.824 2.952-12.292-0.32-16.364-4.72-4.208-4.568-2.672-10.828-1.096-16.368 0.78-2.752 3.416-5.704 5.684-2.284 4.724 7.148 6.788 1.392 9.728-1.216 3.432-3.036 6.576-7.716 11.896-5.504 4.864 2.024 4.352 7.068 4.28 11.516-0.02 1.1-0.696 2.604 1.028 3.244 8.316-13.012 10.308-29.148 5.204-42.032-5.132-12.968-17.184-17.596-28.296-9.292-20.96 15.66-35.108 36.308-38.708 62.704-2.404 17.684 2.372 23.232 20.2 27.452 1.884 0.452 3.984 1.212 5.316 2.512 5.512 5.4 11.012 3.752 16.584 0.408 12.804-7.688 14.74-12.812 10.46-27.476l2.028-2.044zM20.448 639.356c26.476 26.552 61.332 40.108 92.608 59.116 40.64 24.7 82.376 47.596 123.576 71.38 42.332 24.44 84.548 49.084 126.92 73.464 13.356 7.68 25.552 17.868 41.724 19.8 3.608 0.428 3.024 3.98 3.032 6.592 0.036 7.788-0.036 15.572-0.064 23.352-14.432 9.352-25.324-0.42-36.832-6.816-0.288-5.252 1.676-10.724-1.408-15.732l0.192-3.908 0.516-0.56-0.968-0.812c-14.26-13.66-32.788-20.476-49.288-30.54-2.992-1.824-6.684-0.772-7.88 3.592-2.912 4.012-0.756 8.756-1.86 13.028-46.62-26.94-93.216-53.916-139.86-80.808-30.608-17.648-61.284-35.172-91.924-52.752l-0.508-15.892c0.944-7.172-4.6-9.888-9.284-12.736-11.816-7.18-23.988-13.772-35.76-21.012-4.644-2.86-8.66-3.328-13.02-0.064a322.84 322.84 0 0 0-2.8-0.072c-0.016-9.624-3.22-19.592 2.888-28.62z" fill="#45361A" /><path d="M78.42 701.872l0.508 15.892c-5.096 4.628-9.968 3.444-15.412 0.16-12.636-7.62-25.5-14.852-38.36-22.088-4.092-2.308-7.416-4.908-6.284-10.168 1.308-6.068-4.14-11.56-1.32-17.676l2.8 0.076c0.108 1.78 0.876 3.036 2.488 3.996 16 9.548 31.988 19.108 47.9 28.8 2.552 1.552 5.012 1.52 7.68 1.008zM310.712 851.32c1.104-4.268-1.048-9.016 1.86-13.028 16.232 12.776 35.336 20.876 52.504 32.14 1.16 0.76 3.26 0.088 4.924 0.084 3.084 5.008 1.12 10.476 1.408 15.732-4.588 4.208-9.148 4.064-14.46 0.872-13.556-8.128-27.228-16.092-41.116-23.648-5.428-2.952-4.636-7.6-5.12-12.152z" fill="#815A12" /><path d="M56.78 507.964l-0.52 109.62-21.236 10.7c4.94-18.708 9.708-36.224 18.624-52.272 2.216-3.984 2.492-8.22 2.512-12.652 0.112-18.468 0.4-36.936 0.62-55.396z" fill="#585858" /><path d="M973.224 415.64c0.172-3.332-0.516-7.04 0.732-9.908 1.64-3.768 3.836-10.008 9.524-3.096-0.456 6.668-5.94 9.376-10.256 13.004z" fill="#815A12" /><path d="M236.192 285.532c0.02 6.212 0.448 12.472-2.348 18.32-0.488-6.268 0.664-12.332 2.348-18.32zM238.28 271.22c2.948 4.06-0.012 7.02-1.884 10.184-0.452-3.596 0.732-6.884 1.884-10.184z" fill="#C3881A" /><path d="M574.98 309.656c-3.42 5.58-7.616 9.64-13.956 10.68-2.188 0.36-4.464-0.944-3.26-3.364 2.772-5.6 7.56-9.168 13.648-10.648 2.636-0.64 3.272 1.316 3.568 3.332zM218.056 429.904c-0.136 3.436-0.616 6.912 1.18 10.12-0.016 1.78-0.476 3.804 2.244 4.072l-0.056-0.068c2.396 16.788 9.9 31.988 17.12 46.78 11.292 23.124 3.952 45.316 0.4 67.872-0.964 6.108-5.556 5.824-10.12 3.176-14.848-8.616-29.78-17.096-44.54-25.872a8638.12 8638.12 0 0 1-70.36-42.272c-9.136-5.544-9.716-18.264-0.644-23.76a5747.892 5747.892 0 0 1 87.968-52.136c7.764-4.516 13.264-0.232 16.808 12.088z" fill="#FEFEFE" /><path d="M497.66 421.672c-5.884 15.956-5.288 32.972-7.912 49.456-3.908 24.572-6.376 49.376-10.356 73.928-2.16 13.316-10.632 16.756-22.064 10.188a231345.016 231345.016 0 0 1-207.228-119.224c-10.716-6.168-14.636-16.04-13.072-28.044 4.552-35.016 8.532-70.112 12.896-105.156 1.868-15.02 3.844-30.04 6.404-44.952 0.64-3.74 3.72-7.064 5.68-10.572 17.508-9.612 29.568 3.788 42.316 11.028 58.476 33.204 116.5 67.2 174.724 100.852 3.784 2.188 7.76 4.136 11.828 5.724 15.324 5.988 18.408 12.14 13.86 28.388-2.636 9.396-6.384 18.508-7.076 28.384zM831.284 341.328c1.364 32.368-14.212 49.016-36.952 61.964-66.136 37.66-131.92 75.928-197.88 113.904-9.352 5.388-18.956 12.336-30.076 5.412-10.896-6.784-8.668-18.344-7.636-28.596 3.136-31.208 5.456-62.604 10.804-93.456 3.464-19.984 14.944-36.74 33.456-47.416 61.168-35.276 122.276-70.66 183.452-105.92 21.496-12.392 37.008-4.152 39.088 20.752 2.172 25.9 4.068 51.824 5.744 73.356z" fill="#45361A" /><path d="M529.872 725.656c-4.892 8.668-12.108 13.292-20.676 17.08 1.608-9.896 8.512-15.636 20.676-17.08z" fill="#FEFEFE" /><path d="M292.564 710.832c0 7.444 0.128 14.9-0.024 22.34-0.304 14.884-11.904 22.54-24.944 15.416-26.068-14.228-51.652-29.348-77.44-44.092-8.208-4.692-16.34-9.512-24.668-13.976-11.3-6.064-19.964-13.98-20.568-27.792-0.736-16.84-2.384-33.756 1.032-50.456 2.464-12.056 14.252-17.524 24.816-11.5 35.464 20.224 70.916 40.476 106.052 61.264 10.316 6.1 16.868 15.344 15.832 28.5-0.524 6.724-0.088 13.532-0.088 20.296z" fill="#45361A" /><path d="M139.892 630.524c-4.064 16.948-19.436 24.604-34.976 16.324-20.632-10.996-31.86-29.108-36.192-51.848-2.472-12.964-1.968-24.812 10.58-32.876 12.688 1.544 23.84 6.212 32.792 15.66 11.624 12.28 18.836 26.876 23.396 43.004 0.952 3.384 0.408 7.652 4.4 9.736zM375.984 770.456c-3.38 12.668-15.388 19.928-27.672 15.452-24.476-8.92-36.296-28.288-41.872-52.632-3-13.116-1.592-24.636 9.212-33.8 16.672 0.592 29.112 8.9 39.256 21.46 11.716 14.52 16.924 31.788 21.076 49.52z" fill="#585858" /><path d="M375.984 770.456c-4.148-17.736-9.356-35-21.076-49.52-10.144-12.564-22.584-20.868-39.256-21.46 11.072-6.588 21.732-4.252 31.208 2.792 16.892 12.56 27.272 29.46 31.136 50.332 1.156 6.284-0.192 12.036-2.012 17.856zM139.892 630.524c-3.992-2.084-3.444-6.352-4.404-9.736-4.56-16.128-11.772-30.724-23.396-43.004-8.948-9.448-20.104-14.116-32.792-15.66 7.86-5.404 15.768-4.232 23.832-0.368 23.512 11.248 38.716 39.612 36.76 68.768zM877 527.1c-5.624 8.596-13.504 13.36-22.184 18.184 1.428-10.424 10.088-17.448 22.184-18.184z" fill="#FEFEFE" /><path d="M221.48 444.096c-2.72-0.268-2.26-2.292-2.244-4.072 1.632 0.868 2.944 1.916 2.244 4.072z" fill="#FEEB2D" /><path d="M574.356 842.232c-4.308-13.356-8.784-14.884-18.692-7.744-1.892 1.36-3.564 4.3-5.88 3.456-11.34-4.12-11.94 2.672-11.416 10.764 0.376 5.812 9.696 14.736 15.26 12.988 6.608-2.072 9.736 0.552 12.12 5.408 2.604 5.316-1.332 8.908-4.448 12.376-9.524 10.588-15.084 11.588-26.828 5.076-0.588-0.328-1.192-0.936-1.768-0.924-9.2 0.256-17.468-2.896-21.184-11.164-4.168-9.272-1.088-19.208 1.868-28.612 7.044-22.412 19.344-40.804 40.728-51.844 9.216-4.752 16.1-2.188 21.296 6.688 8.22 14.028 4.944 27.768-1.056 43.532zM904.216 659.496c4.276 14.664 2.344 19.788-10.46 27.476-5.576 3.348-11.076 4.992-16.584-0.408-1.332-1.3-3.432-2.06-5.316-2.512-17.828-4.224-22.6-9.768-20.2-27.452 3.596-26.396 17.748-47.044 38.708-62.704 11.112-8.304 23.164-3.676 28.296 9.292 5.104 12.884 3.112 29.02-5.204 42.032-1.724-0.636-1.048-2.14-1.028-3.244 0.072-4.448 0.584-9.492-4.28-11.516-5.32-2.212-8.46 2.468-11.896 5.504-2.936 2.604-5.004 8.364-9.728 1.216-2.264-3.416-4.904-0.464-5.684 2.284-1.576 5.54-3.108 11.8 1.096 16.368 4.072 4.4 9.54 7.672 16.364 4.72 1.788-0.772 3.936-0.728 5.916-1.056z" fill="#585858" /><path d="M908.288 655.44l0.72-2.648c1.884 1.476 0.052 1.908-0.74 2.624l0.02 0.024zM908.268 655.416l-2.028 2.044 0.012 0.004 2.036-2.024-0.02-0.024z" fill="#585858" /><path d="M904.212 659.492l2.044-2.028-0.012-0.004c-0.676 0.676-1.352 1.36-2.032 2.032z" fill="#585858" /><path d="M370 870.516c-1.664 0.008-3.764 0.68-4.924-0.084-17.168-11.264-36.272-19.364-52.504-32.14 1.196-4.368 4.888-5.416 7.88-3.592 16.5 10.064 35.028 16.88 49.288 30.54 0 0.5 0.156 0.96 0.452 1.372l-0.192 3.904zM78.42 701.872c-2.668 0.512-5.128 0.544-7.68-1.012a6170.388 6170.388 0 0 0-47.9-28.8c-1.612-0.96-2.38-2.216-2.488-3.996 4.36-3.264 8.376-2.796 13.02 0.064 11.776 7.24 23.944 13.832 35.76 21.012 4.688 2.844 10.232 5.56 9.288 12.732z" fill="#C3881A" /><path d="M370.192 866.608a2.284 2.284 0 0 1-0.452-1.372l0.968 0.812-0.516 0.56z" fill="#815A12" /></svg>